<?xml version="1.0" encoding="UTF-8"?>
<svg width="374px" height="292px" viewBox="0 0 374 292" version="1.1" xmlns="http://www.w3.org/2000/svg" xmlns:xlink="http://www.w3.org/1999/xlink">
    <title>raw-icon</title>
    <defs>
        <polygon id="path-1" points="0.000243937106 0.0634313767 373.981084 0.0634313767 373.981084 290.999401 0.000243937106 290.999401"></polygon>
        <path d="M0.318219462,26.0881356 C0.318219462,40.500791 26.4307423,80 26.4307423,80 L26.4307423,80 C26.4307423,80 52.5501035,40.500791 52.5501035,26.0881356 L52.5501035,26.0881356 C52.5501035,11.6827119 40.8563981,0 26.4307423,0 L26.4307423,0 C12.0050864,0 0.318219462,11.6827119 0.318219462,26.0881356 L0.318219462,26.0881356 Z M15.9850493,26.0881356 C15.9850493,20.3281356 20.6591123,15.6564972 26.4307423,15.6564972 L26.4307423,15.6564972 C32.1989531,15.6564972 36.8798545,20.3281356 36.8798545,26.0881356 L36.8798545,26.0881356 C36.8798545,31.8517514 32.1989531,36.519774 26.4307423,36.519774 L26.4307423,36.519774 C20.6591123,36.519774 15.9850493,31.8517514 15.9850493,26.0881356 L15.9850493,26.0881356 Z" id="path-3"></path>
        <path d="M0.318219462,26.0881356 C0.318219462,40.500791 26.4307423,80 26.4307423,80 L26.4307423,80 C26.4307423,80 52.5501035,40.500791 52.5501035,26.0881356 L52.5501035,26.0881356 C52.5501035,11.6827119 40.8563981,0 26.4307423,0 L26.4307423,0 C12.0050864,0 0.318219462,11.6827119 0.318219462,26.0881356 L0.318219462,26.0881356 Z M15.9850493,26.0881356 C15.9850493,20.3281356 20.6591123,15.6564972 26.4307423,15.6564972 L26.4307423,15.6564972 C32.1989531,15.6564972 36.8798545,20.3281356 36.8798545,26.0881356 L36.8798545,26.0881356 C36.8798545,31.8517514 32.1989531,36.519774 26.4307423,36.519774 L26.4307423,36.519774 C20.6591123,36.519774 15.9850493,31.8517514 15.9850493,26.0881356 L15.9850493,26.0881356 Z" id="path-5"></path>
    </defs>
    <g id="raw-icon" stroke="none" stroke-width="1" fill="none" fill-rule="evenodd">
        <g id="icon-foreground">
            <g id="Group-3" transform="translate(0.000000, 0.545455)">
                <mask id="mask-2" fill="white">
                    <use xlink:href="#path-1"></use>
                </mask>
                <g id="Clip-2"></g>
                <path d="M201.146844,15.1927447 L264.047058,15.1927447 C267.097863,15.1927447 270.021649,16.4045392 272.178618,18.5622394 L283.135171,29.522509 C285.289787,31.6778561 288.218278,32.8896506 291.266731,32.8896506 L362.460806,32.8896506 C372.196567,32.8896506 377.524303,44.2381651 371.314492,51.7348201 L185.74463,286.839427 C180.790894,292.816045 171.462064,292.265443 167.242215,285.749989 L3.4372717,32.7555297 C-5.68691698,18.6634183 4.42284403,0.0629607769 21.2058,0.0629607769 L165.311058,0.0629607769 C168.359511,0.0629607769 171.238605,2.05830398 174.496404,3.10774156" id="Fill-1" fill="#003366" mask="url(#mask-2)"></path>
            </g>
            <g id="Group-7" transform="translate(73.000000, 20.545455)">
                <mask id="mask-4" fill="white">
                    <use xlink:href="#path-3"></use>
                </mask>
                <g id="Clip-5"></g>
                <polygon id="Fill-4" fill="#FFFFFF" mask="url(#mask-4)" points="0.318219462 80 52.5501035 80 52.5501035 0 0.318219462 0"></polygon>
                <polygon id="Fill-6" fill="#FFFFFF" mask="url(#mask-4)" points="-8.89917184 89.3203883 61.7674948 89.3203883 61.7674948 -9.32038835 -8.89917184 -9.32038835"></polygon>
            </g>
            <g id="Group-7-Copy" transform="translate(178.000000, 145.545455)">
                <mask id="mask-6" fill="white">
                    <use xlink:href="#path-5"></use>
                </mask>
                <g id="Clip-5"></g>
                <polygon id="Fill-4" fill="#FFFFFF" mask="url(#mask-6)" points="0.318219462 80 52.5501035 80 52.5501035 0 0.318219462 0"></polygon>
                <polygon id="Fill-6" fill="#FFFFFF" mask="url(#mask-6)" points="-8.89917184 89.3203883 61.7674948 89.3203883 61.7674948 -9.32038835 -8.89917184 -9.32038835"></polygon>
            </g>
            <path d="M126,73.7546727 C175.351538,55.5509857 209.638248,54.081356 227.795356,73.7546727 C231.782384,78.0766984 241.845331,89.345424 239.704629,102.450013 C238.522415,109.715993 233.989026,114.981775 232.1898,117.026579 C225.668784,124.433418 217.369738,127.452497 211.171358,129.11933 C179.868597,137.535659 164.502173,121.588065 145.899968,132.136061 C136.157302,137.662432 128.449363,148.996892 128.529433,160.338395 C128.644828,176.18504 139.460962,183.120392 142.148026,184.965646 C142.574779,185.257416 145.27083,191.594349 162.580623,193.798117 C166.859007,194.342812 172.030157,194.635009 178.280466,194.52102" id="Stroke-12" stroke="#FFFFFF" stroke-width="8.376" stroke-linecap="round" stroke-linejoin="round" stroke-dasharray="7.127999782562256,27.5"></path>
        </g>
    </g>
</svg>